<svg width="39" height="30" viewBox="0 0 39 30" fill="none" xmlns="http://www.w3.org/2000/svg">
<path fill-rule="evenodd" clip-rule="evenodd" d="M23.1446 1.0601C23.8285 0.665252 24.614 0.481672 25.4021 0.532496L35.463 1.18135C36.5965 1.25446 37.6185 1.88925 38.1865 2.87296V2.87296C38.7544 3.85668 38.7931 5.05916 38.2897 6.07739L33.8212 15.1148C33.4711 15.8227 32.9194 16.4112 32.2355 16.806L11.555 28.7459C9.64185 29.8505 7.19548 29.195 6.09091 27.2818L1 18.4641C-0.104567 16.5509 0.550934 14.1046 2.4641 13L23.1446 1.0601ZM35.0374 4.69109C35.5395 5.56071 35.2415 6.6727 34.3719 7.17477C33.5023 7.67685 32.3903 7.37889 31.8882 6.50927C31.3861 5.63965 31.6841 4.52767 32.5537 4.02559C33.4233 3.52351 34.5353 3.82147 35.0374 4.69109ZM8.00931 12.4228C7.63276 11.7706 6.79877 11.5471 6.14655 11.9237V11.9237C5.49433 12.3002 5.27087 13.1342 5.64743 13.7864V13.7864C6.02398 14.4386 6.85797 14.6621 7.51019 14.2856V14.2856C8.1624 13.909 8.38587 13.075 8.00931 12.4228V12.4228ZM12.4088 25.4974C12.0322 24.8452 12.2557 24.0112 12.9079 23.6347V23.6347C13.5601 23.2581 14.3941 23.4816 14.7707 24.1338V24.1338C15.1472 24.786 14.9238 25.62 14.2716 25.9966V25.9966C13.6193 26.3731 12.7853 26.1497 12.4088 25.4974V25.4974ZM4.12967 14.7939C3.75311 14.1417 2.91912 13.9182 2.26691 14.2948V14.2948C1.61469 14.6714 1.39122 15.5053 1.76778 16.1576V16.1576C2.14434 16.8098 2.97833 17.0332 3.63054 16.6567V16.6567C4.28276 16.2801 4.50623 15.4461 4.12967 14.7939V14.7939ZM8.52914 27.8686C8.15259 27.2164 8.37605 26.3824 9.02827 26.0058V26.0058C9.68049 25.6293 10.5145 25.8527 10.891 26.505V26.505C11.2676 27.1572 11.0441 27.9912 10.3919 28.3677V28.3677C9.73969 28.7443 8.9057 28.5208 8.52914 27.8686V27.8686ZM15.8823 7.87734C15.5057 7.22512 14.6717 7.00166 14.0195 7.37821V7.37821C13.3673 7.75477 13.1438 8.58876 13.5204 9.24097V9.24097C13.897 9.89319 14.731 10.1167 15.3832 9.7401V9.7401C16.0354 9.36354 16.2589 8.52956 15.8823 7.87734V7.87734ZM20.2818 20.952C19.9052 20.2998 20.1287 19.4658 20.7809 19.0892V19.0892C21.4331 18.7127 22.2671 18.9361 22.6437 19.5883V19.5883C23.0202 20.2406 22.7967 21.0746 22.1445 21.4511V21.4511C21.4923 21.8277 20.6583 21.6042 20.2818 20.952V20.952ZM11.9458 10.1501C11.5692 9.49785 10.7353 9.27438 10.083 9.65094V9.65094C9.43082 10.0275 9.20736 10.8615 9.58392 11.5137V11.5137C9.96047 12.1659 10.7945 12.3894 11.4467 12.0128V12.0128C12.0989 11.6363 12.3224 10.8023 11.9458 10.1501V10.1501ZM16.3453 23.2247C15.9687 22.5725 16.1922 21.7385 16.8444 21.3619V21.3619C17.4966 20.9854 18.3306 21.2089 18.7072 21.8611V21.8611C19.0837 22.5133 18.8603 23.3473 18.208 23.7238V23.7238C17.5558 24.1004 16.7218 23.8769 16.3453 23.2247V23.2247ZM19.8188 5.60461C19.4422 4.95239 18.6082 4.72893 17.956 5.10549V5.10549C17.3038 5.48204 17.0803 6.31603 17.4569 6.96825V6.96825C17.8334 7.62046 18.6674 7.84393 19.3196 7.46737V7.46737C19.9718 7.09082 20.1953 6.25683 19.8188 5.60461V5.60461ZM24.2182 18.6793C23.8417 18.0271 24.0651 17.1931 24.7174 16.8165V16.8165C25.3696 16.44 26.2036 16.6634 26.5801 17.3156V17.3156C26.9567 17.9679 26.7332 18.8019 26.081 19.1784V19.1784C25.4288 19.555 24.5948 19.3315 24.2182 18.6793V18.6793ZM23.7552 3.33188C23.3787 2.67967 22.5447 2.4562 21.8925 2.83276V2.83276C21.2403 3.20932 21.0168 4.0433 21.3934 4.69552V4.69552C21.7699 5.34774 22.6039 5.5712 23.2561 5.19465V5.19465C23.9083 4.81809 24.1318 3.9841 23.7552 3.33188V3.33188ZM28.1547 16.4066C27.7782 15.7543 28.0016 14.9204 28.6538 14.5438V14.5438C29.3061 14.1672 30.1401 14.3907 30.5166 15.0429V15.0429C30.8932 15.6951 30.6697 16.5291 30.0175 16.9057V16.9057C29.3653 17.2822 28.5313 17.0588 28.1547 16.4066V16.4066Z" fill="url(#paint0_linear_167_239)"/>
<defs>
<linearGradient id="paint0_linear_167_239" x1="3.5" y1="22.5" x2="38" y2="3" gradientUnits="userSpaceOnUse">
<stop stop-color="#999999"/>
<stop offset="1" stop-color="white"/>
</linearGradient>
</defs>
</svg>
