<svg width="300" height="450" viewBox="0 0 300 450" fill="none" xmlns="http://www.w3.org/2000/svg">
<rect width="300" height="450" fill="url(#paint0_linear_169_330)"/>
<path d="M88.1949 290V267.6H90.1469L100.387 285.072H99.3629L109.507 267.6H111.459V290H109.187V271.152H109.731L100.387 287.152H99.2669L89.8589 271.152H90.4669V290H88.1949ZM118.277 290V273.2H120.549V290H118.277ZM119.429 269.488C118.96 269.488 118.565 269.328 118.245 269.008C117.925 268.688 117.765 268.304 117.765 267.856C117.765 267.408 117.925 267.035 118.245 266.736C118.565 266.416 118.96 266.256 119.429 266.256C119.899 266.256 120.293 266.405 120.613 266.704C120.933 267.003 121.093 267.376 121.093 267.824C121.093 268.293 120.933 268.688 120.613 269.008C120.315 269.328 119.92 269.488 119.429 269.488ZM131.383 290.16C129.996 290.16 128.684 289.968 127.447 289.584C126.21 289.179 125.239 288.677 124.535 288.08L125.559 286.288C126.242 286.8 127.116 287.248 128.183 287.632C129.25 287.995 130.37 288.176 131.543 288.176C133.143 288.176 134.295 287.931 134.999 287.44C135.703 286.928 136.055 286.256 136.055 285.424C136.055 284.805 135.852 284.325 135.447 283.984C135.063 283.621 134.551 283.355 133.911 283.184C133.271 282.992 132.556 282.832 131.767 282.704C130.978 282.576 130.188 282.427 129.399 282.256C128.631 282.085 127.927 281.84 127.287 281.52C126.647 281.179 126.124 280.72 125.719 280.144C125.335 279.568 125.143 278.8 125.143 277.84C125.143 276.923 125.399 276.101 125.911 275.376C126.423 274.651 127.17 274.085 128.151 273.68C129.154 273.253 130.37 273.04 131.799 273.04C132.887 273.04 133.975 273.189 135.063 273.488C136.151 273.765 137.047 274.139 137.751 274.608L136.759 276.432C136.012 275.92 135.212 275.557 134.359 275.344C133.506 275.109 132.652 274.992 131.799 274.992C130.284 274.992 129.164 275.259 128.439 275.792C127.735 276.304 127.383 276.965 127.383 277.776C127.383 278.416 127.575 278.917 127.959 279.28C128.364 279.643 128.887 279.931 129.527 280.144C130.188 280.336 130.903 280.496 131.671 280.624C132.46 280.752 133.239 280.912 134.007 281.104C134.796 281.275 135.511 281.52 136.151 281.84C136.812 282.139 137.335 282.576 137.719 283.152C138.124 283.707 138.327 284.443 138.327 285.36C138.327 286.341 138.05 287.195 137.495 287.92C136.962 288.624 136.172 289.179 135.127 289.584C134.103 289.968 132.855 290.16 131.383 290.16ZM147.008 290.16C145.621 290.16 144.309 289.968 143.072 289.584C141.835 289.179 140.864 288.677 140.16 288.08L141.184 286.288C141.867 286.8 142.741 287.248 143.808 287.632C144.875 287.995 145.995 288.176 147.168 288.176C148.768 288.176 149.92 287.931 150.624 287.44C151.328 286.928 151.68 286.256 151.68 285.424C151.68 284.805 151.477 284.325 151.072 283.984C150.688 283.621 150.176 283.355 149.536 283.184C148.896 282.992 148.181 282.832 147.392 282.704C146.603 282.576 145.813 282.427 145.024 282.256C144.256 282.085 143.552 281.84 142.912 281.52C142.272 281.179 141.749 280.72 141.344 280.144C140.96 279.568 140.768 278.8 140.768 277.84C140.768 276.923 141.024 276.101 141.536 275.376C142.048 274.651 142.795 274.085 143.776 273.68C144.779 273.253 145.995 273.04 147.424 273.04C148.512 273.04 149.6 273.189 150.688 273.488C151.776 273.765 152.672 274.139 153.376 274.608L152.384 276.432C151.637 275.92 150.837 275.557 149.984 275.344C149.131 275.109 148.277 274.992 147.424 274.992C145.909 274.992 144.789 275.259 144.064 275.792C143.36 276.304 143.008 276.965 143.008 277.776C143.008 278.416 143.2 278.917 143.584 279.28C143.989 279.643 144.512 279.931 145.152 280.144C145.813 280.336 146.528 280.496 147.296 280.624C148.085 280.752 148.864 280.912 149.632 281.104C150.421 281.275 151.136 281.52 151.776 281.84C152.437 282.139 152.96 282.576 153.344 283.152C153.749 283.707 153.952 284.443 153.952 285.36C153.952 286.341 153.675 287.195 153.12 287.92C152.587 288.624 151.797 289.179 150.752 289.584C149.728 289.968 148.48 290.16 147.008 290.16ZM158.121 290V273.2H160.393V290H158.121ZM159.273 269.488C158.804 269.488 158.409 269.328 158.089 269.008C157.769 268.688 157.609 268.304 157.609 267.856C157.609 267.408 157.769 267.035 158.089 266.736C158.409 266.416 158.804 266.256 159.273 266.256C159.742 266.256 160.137 266.405 160.457 266.704C160.777 267.003 160.937 267.376 160.937 267.824C160.937 268.293 160.777 268.688 160.457 269.008C160.158 269.328 159.764 269.488 159.273 269.488ZM175.291 273.04C176.656 273.04 177.851 273.307 178.875 273.84C179.92 274.352 180.731 275.141 181.307 276.208C181.904 277.275 182.203 278.619 182.203 280.24V290H179.931V280.464C179.931 278.693 179.483 277.36 178.587 276.464C177.712 275.547 176.475 275.088 174.875 275.088C173.68 275.088 172.635 275.333 171.739 275.824C170.864 276.293 170.182 276.987 169.691 277.904C169.222 278.8 168.987 279.888 168.987 281.168V290H166.715V273.2H168.891V277.808L168.539 276.944C169.072 275.728 169.926 274.779 171.099 274.096C172.272 273.392 173.67 273.04 175.291 273.04ZM195.508 296.368C193.972 296.368 192.5 296.144 191.092 295.696C189.684 295.248 188.543 294.608 187.668 293.776L188.82 292.048C189.609 292.752 190.58 293.307 191.732 293.712C192.905 294.139 194.143 294.352 195.444 294.352C197.577 294.352 199.145 293.851 200.148 292.848C201.151 291.867 201.652 290.331 201.652 288.24V284.048L201.972 281.168L201.748 278.288V273.2H203.924V287.952C203.924 290.853 203.209 292.976 201.78 294.32C200.372 295.685 198.281 296.368 195.508 296.368ZM195.092 289.36C193.492 289.36 192.052 289.019 190.772 288.336C189.492 287.632 188.479 286.661 187.732 285.424C187.007 284.187 186.644 282.768 186.644 281.168C186.644 279.568 187.007 278.16 187.732 276.944C188.479 275.707 189.492 274.747 190.772 274.064C192.052 273.381 193.492 273.04 195.092 273.04C196.585 273.04 197.929 273.349 199.124 273.968C200.319 274.587 201.268 275.504 201.972 276.72C202.676 277.936 203.028 279.419 203.028 281.168C203.028 282.917 202.676 284.4 201.972 285.616C201.268 286.832 200.319 287.76 199.124 288.4C197.929 289.04 196.585 289.36 195.092 289.36ZM195.316 287.344C196.553 287.344 197.652 287.088 198.612 286.576C199.572 286.043 200.329 285.317 200.884 284.4C201.439 283.461 201.716 282.384 201.716 281.168C201.716 279.952 201.439 278.885 200.884 277.968C200.329 277.051 199.572 276.336 198.612 275.824C197.652 275.291 196.553 275.024 195.316 275.024C194.1 275.024 193.001 275.291 192.02 275.824C191.06 276.336 190.303 277.051 189.748 277.968C189.215 278.885 188.948 279.952 188.948 281.168C188.948 282.384 189.215 283.461 189.748 284.4C190.303 285.317 191.06 286.043 192.02 286.576C193.001 287.088 194.1 287.344 195.316 287.344ZM50.3511 329V306.6H52.3031L62.5431 324.072H61.5191L71.6631 306.6H73.6151V329H71.3431V310.152H71.8871L62.5431 326.152H61.4231L52.0151 310.152H52.6231V329H50.3511ZM87.2816 329.16C85.6603 329.16 84.199 328.797 82.8976 328.072C81.6176 327.325 80.6043 326.312 79.8576 325.032C79.111 323.731 78.7376 322.248 78.7376 320.584C78.7376 318.899 79.111 317.416 79.8576 316.136C80.6043 314.856 81.6176 313.853 82.8976 313.128C84.1776 312.403 85.639 312.04 87.2816 312.04C88.9456 312.04 90.4176 312.403 91.6976 313.128C92.999 313.853 94.0123 314.856 94.7376 316.136C95.4843 317.416 95.8576 318.899 95.8576 320.584C95.8576 322.248 95.4843 323.731 94.7376 325.032C94.0123 326.312 92.999 327.325 91.6976 328.072C90.3963 328.797 88.9243 329.16 87.2816 329.16ZM87.2816 327.144C88.4976 327.144 89.575 326.877 90.5136 326.344C91.4523 325.789 92.1883 325.021 92.7216 324.04C93.2763 323.037 93.5536 321.885 93.5536 320.584C93.5536 319.261 93.2763 318.109 92.7216 317.128C92.1883 316.147 91.4523 315.389 90.5136 314.856C89.575 314.301 88.5083 314.024 87.3136 314.024C86.119 314.024 85.0523 314.301 84.1136 314.856C83.175 315.389 82.4283 316.147 81.8736 317.128C81.319 318.109 81.0416 319.261 81.0416 320.584C81.0416 321.885 81.319 323.037 81.8736 324.04C82.4283 325.021 83.175 325.789 84.1136 326.344C85.0523 326.877 86.1083 327.144 87.2816 327.144ZM104.347 329L96.8914 312.2H99.2594L106.107 327.784H104.987L111.931 312.2H114.171L106.683 329H104.347ZM117.371 329V312.2H119.643V329H117.371ZM118.523 308.488C118.054 308.488 117.659 308.328 117.339 308.008C117.019 307.688 116.859 307.304 116.859 306.856C116.859 306.408 117.019 306.035 117.339 305.736C117.659 305.416 118.054 305.256 118.523 305.256C118.992 305.256 119.387 305.405 119.707 305.704C120.027 306.003 120.187 306.376 120.187 306.824C120.187 307.293 120.027 307.688 119.707 308.008C119.408 308.328 119.014 308.488 118.523 308.488ZM133.101 329.16C131.352 329.16 129.816 328.797 128.493 328.072C127.17 327.325 126.136 326.312 125.389 325.032C124.642 323.731 124.269 322.248 124.269 320.584C124.269 318.92 124.621 317.448 125.325 316.168C126.05 314.888 127.032 313.885 128.269 313.16C129.528 312.413 130.936 312.04 132.493 312.04C134.072 312.04 135.469 312.403 136.685 313.128C137.922 313.832 138.893 314.835 139.597 316.136C140.301 317.416 140.653 318.899 140.653 320.584C140.653 320.691 140.642 320.808 140.621 320.936C140.621 321.043 140.621 321.16 140.621 321.288H125.997V319.592H139.405L138.509 320.264C138.509 319.048 138.242 317.971 137.709 317.032C137.197 316.072 136.493 315.325 135.597 314.792C134.701 314.259 133.666 313.992 132.493 313.992C131.341 313.992 130.306 314.259 129.389 314.792C128.472 315.325 127.757 316.072 127.245 317.032C126.733 317.992 126.477 319.091 126.477 320.328V320.68C126.477 321.96 126.754 323.091 127.309 324.072C127.885 325.032 128.674 325.789 129.677 326.344C130.701 326.877 131.864 327.144 133.165 327.144C134.189 327.144 135.138 326.963 136.013 326.6C136.909 326.237 137.677 325.683 138.317 324.936L139.597 326.408C138.85 327.304 137.912 327.987 136.781 328.456C135.672 328.925 134.445 329.16 133.101 329.16ZM154.132 329V306.6H162.516C164.415 306.6 166.047 306.909 167.412 307.528C168.778 308.125 169.823 309 170.548 310.152C171.295 311.283 171.668 312.659 171.668 314.28C171.668 315.859 171.295 317.224 170.548 318.376C169.823 319.507 168.778 320.381 167.412 321C166.047 321.619 164.415 321.928 162.516 321.928H155.444L156.5 320.808V329H154.132ZM156.5 321L155.444 319.848H162.452C164.692 319.848 166.388 319.368 167.54 318.408C168.714 317.427 169.3 316.051 169.3 314.28C169.3 312.488 168.714 311.101 167.54 310.12C166.388 309.139 164.692 308.648 162.452 308.648H155.444L156.5 307.528V321ZM183.063 329.16C181.442 329.16 179.98 328.797 178.679 328.072C177.399 327.325 176.386 326.312 175.639 325.032C174.892 323.731 174.519 322.248 174.519 320.584C174.519 318.899 174.892 317.416 175.639 316.136C176.386 314.856 177.399 313.853 178.679 313.128C179.959 312.403 181.42 312.04 183.063 312.04C184.727 312.04 186.199 312.403 187.479 313.128C188.78 313.853 189.794 314.856 190.519 316.136C191.266 317.416 191.639 318.899 191.639 320.584C191.639 322.248 191.266 323.731 190.519 325.032C189.794 326.312 188.78 327.325 187.479 328.072C186.178 328.797 184.706 329.16 183.063 329.16ZM183.063 327.144C184.279 327.144 185.356 326.877 186.295 326.344C187.234 325.789 187.97 325.021 188.503 324.04C189.058 323.037 189.335 321.885 189.335 320.584C189.335 319.261 189.058 318.109 188.503 317.128C187.97 316.147 187.234 315.389 186.295 314.856C185.356 314.301 184.29 314.024 183.095 314.024C181.9 314.024 180.834 314.301 179.895 314.856C178.956 315.389 178.21 316.147 177.655 317.128C177.1 318.109 176.823 319.261 176.823 320.584C176.823 321.885 177.1 323.037 177.655 324.04C178.21 325.021 178.956 325.789 179.895 326.344C180.834 326.877 181.89 327.144 183.063 327.144ZM200.789 329.16C199.403 329.16 198.091 328.968 196.853 328.584C195.616 328.179 194.645 327.677 193.941 327.08L194.965 325.288C195.648 325.8 196.523 326.248 197.589 326.632C198.656 326.995 199.776 327.176 200.949 327.176C202.549 327.176 203.701 326.931 204.405 326.44C205.109 325.928 205.461 325.256 205.461 324.424C205.461 323.805 205.259 323.325 204.853 322.984C204.469 322.621 203.957 322.355 203.317 322.184C202.677 321.992 201.963 321.832 201.173 321.704C200.384 321.576 199.595 321.427 198.805 321.256C198.037 321.085 197.333 320.84 196.693 320.52C196.053 320.179 195.531 319.72 195.125 319.144C194.741 318.568 194.549 317.8 194.549 316.84C194.549 315.923 194.805 315.101 195.317 314.376C195.829 313.651 196.576 313.085 197.557 312.68C198.56 312.253 199.776 312.04 201.205 312.04C202.293 312.04 203.381 312.189 204.469 312.488C205.557 312.765 206.453 313.139 207.157 313.608L206.165 315.432C205.419 314.92 204.619 314.557 203.765 314.344C202.912 314.109 202.059 313.992 201.205 313.992C199.691 313.992 198.571 314.259 197.845 314.792C197.141 315.304 196.789 315.965 196.789 316.776C196.789 317.416 196.981 317.917 197.365 318.28C197.771 318.643 198.293 318.931 198.933 319.144C199.595 319.336 200.309 319.496 201.077 319.624C201.867 319.752 202.645 319.912 203.413 320.104C204.203 320.275 204.917 320.52 205.557 320.84C206.219 321.139 206.741 321.576 207.125 322.152C207.531 322.707 207.733 323.443 207.733 324.36C207.733 325.341 207.456 326.195 206.901 326.92C206.368 327.624 205.579 328.179 204.533 328.584C203.509 328.968 202.261 329.16 200.789 329.16ZM217.214 329.16C215.636 329.16 214.42 328.733 213.566 327.88C212.713 327.027 212.286 325.821 212.286 324.264V308.488H214.558V324.136C214.558 325.117 214.804 325.875 215.294 326.408C215.806 326.941 216.532 327.208 217.47 327.208C218.473 327.208 219.305 326.92 219.966 326.344L220.766 327.976C220.318 328.381 219.774 328.68 219.134 328.872C218.516 329.064 217.876 329.16 217.214 329.16ZM209.278 314.088V312.2H219.678V314.088H209.278ZM231.445 329.16C229.695 329.16 228.159 328.797 226.837 328.072C225.514 327.325 224.479 326.312 223.733 325.032C222.986 323.731 222.613 322.248 222.613 320.584C222.613 318.92 222.965 317.448 223.669 316.168C224.394 314.888 225.375 313.885 226.613 313.16C227.871 312.413 229.279 312.04 230.837 312.04C232.415 312.04 233.813 312.403 235.029 313.128C236.266 313.832 237.237 314.835 237.941 316.136C238.645 317.416 238.997 318.899 238.997 320.584C238.997 320.691 238.986 320.808 238.965 320.936C238.965 321.043 238.965 321.16 238.965 321.288H224.341V319.592H237.749L236.853 320.264C236.853 319.048 236.586 317.971 236.053 317.032C235.541 316.072 234.837 315.325 233.941 314.792C233.045 314.259 232.01 313.992 230.837 313.992C229.685 313.992 228.65 314.259 227.733 314.792C226.815 315.325 226.101 316.072 225.589 317.032C225.077 317.992 224.821 319.091 224.821 320.328V320.68C224.821 321.96 225.098 323.091 225.653 324.072C226.229 325.032 227.018 325.789 228.021 326.344C229.045 326.877 230.207 327.144 231.509 327.144C232.533 327.144 233.482 326.963 234.357 326.6C235.253 326.237 236.021 325.683 236.661 324.936L237.941 326.408C237.194 327.304 236.255 327.987 235.125 328.456C234.015 328.925 232.789 329.16 231.445 329.16ZM243.621 329V312.2H245.797V316.776L245.573 315.976C246.042 314.696 246.832 313.725 247.941 313.064C249.05 312.381 250.426 312.04 252.069 312.04V314.248C251.984 314.248 251.898 314.248 251.813 314.248C251.728 314.227 251.642 314.216 251.557 314.216C249.786 314.216 248.4 314.76 247.397 315.848C246.394 316.915 245.893 318.44 245.893 320.424V329H243.621Z" fill="white"/>
<path fill-rule="evenodd" clip-rule="evenodd" d="M161.232 94.6181C161.232 94.6181 161.232 94.6181 161.232 94.6181L209.716 99.4546C210.997 99.5824 212.139 100.319 212.783 101.435L218.138 110.711C218.782 111.826 218.85 113.183 218.32 114.357L198.266 158.763C198.266 158.763 198.266 158.763 198.266 158.764V158.764C198.266 158.764 198.266 158.764 198.266 158.764L106.499 211.746C104.585 212.85 102.139 212.195 101.035 210.282L68 153.064C66.8955 151.151 67.551 148.705 69.4641 147.6L161.231 94.6183C161.231 94.6183 161.231 94.6183 161.231 94.6183V94.6183C161.231 94.6183 161.231 94.6182 161.231 94.6182L161.232 94.6181ZM203.557 112.946C205.602 116.488 204.596 120.899 201.308 122.797C198.021 124.695 193.698 123.361 191.653 119.818C189.608 116.276 190.614 111.865 193.902 109.968C197.189 108.07 201.512 109.403 203.557 112.946ZM99.6115 139.09C98.507 137.176 96.0606 136.521 94.1474 137.625L92.1477 138.78C90.2345 139.885 89.579 142.331 90.6836 144.244L92.2387 146.938C93.3433 148.851 95.7897 149.506 97.7028 148.402L99.7026 147.247C101.616 146.143 102.271 143.696 101.167 141.783L99.6115 139.09ZM118.228 191.952C117.124 190.039 117.779 187.593 119.692 186.488L121.692 185.333C123.605 184.229 126.052 184.884 127.156 186.798L128.712 189.491C129.816 191.404 129.161 193.851 127.247 194.955L125.248 196.11C123.334 197.214 120.888 196.559 119.784 194.646L118.228 191.952ZM84.9631 148.081C83.8586 146.168 81.4122 145.513 79.499 146.617L77.4993 147.772C75.5861 148.876 74.9306 151.323 76.0352 153.236L77.5903 155.929C78.6949 157.843 81.1413 158.498 83.0544 157.394L85.0542 156.239C86.9674 155.134 87.6229 152.688 86.5183 150.775L84.9631 148.081ZM103.58 200.945C102.475 199.032 103.131 196.585 105.044 195.481L107.044 194.326C108.957 193.222 111.403 193.877 112.508 195.79L114.063 198.484C115.168 200.397 114.512 202.843 112.599 203.948L110.599 205.102C108.686 206.207 106.24 205.552 105.135 203.638L103.58 200.945ZM129.372 121.908C128.267 119.995 125.821 119.339 123.908 120.444L121.908 121.598C119.995 122.703 119.339 125.149 120.444 127.062L121.999 129.756C123.104 131.669 125.55 132.325 127.463 131.22L129.463 130.066C131.376 128.961 132.032 126.515 130.927 124.602L129.372 121.908ZM147.988 174.77C146.883 172.857 147.539 170.411 149.452 169.306L151.452 168.152C153.365 167.047 155.811 167.703 156.916 169.616L158.471 172.309C159.575 174.223 158.92 176.669 157.007 177.774L155.007 178.928C153.094 180.033 150.647 179.377 149.543 177.464L147.988 174.77ZM114.492 130.499C113.387 128.586 110.941 127.93 109.028 129.035L107.028 130.189C105.115 131.294 104.459 133.74 105.564 135.653L107.119 138.347C108.223 140.26 110.67 140.916 112.583 139.811L114.583 138.656C116.496 137.552 117.151 135.106 116.047 133.192L114.492 130.499ZM133.109 183.361C132.004 181.448 132.659 179.002 134.573 177.897L136.572 176.743C138.486 175.638 140.932 176.294 142.036 178.207L143.592 180.9C144.696 182.814 144.041 185.26 142.128 186.364L140.128 187.519C138.215 188.624 135.768 187.968 134.664 186.055L133.109 183.361ZM144.252 113.317C143.147 111.404 140.701 110.748 138.788 111.853L136.788 113.007C134.875 114.112 134.219 116.558 135.324 118.472L136.879 121.165C137.984 123.078 140.43 123.734 142.343 122.629L144.343 121.475C146.256 120.37 146.912 117.924 145.807 116.011L144.252 113.317ZM162.868 166.18C161.763 164.266 162.419 161.82 164.332 160.715L166.332 159.561C168.245 158.456 170.691 159.112 171.796 161.025L173.351 163.719C174.456 165.632 173.8 168.078 171.887 169.183L169.887 170.337C167.974 171.442 165.528 170.786 164.423 168.873L162.868 166.18ZM159.131 104.726C158.027 102.813 155.58 102.157 153.667 103.262L151.667 104.417C149.754 105.521 149.099 107.968 150.203 109.881L151.758 112.574C152.863 114.488 155.309 115.143 157.222 114.038L159.222 112.884C161.135 111.779 161.791 109.333 160.686 107.42L159.131 104.726ZM177.748 157.589C176.643 155.676 177.299 153.229 179.212 152.125L181.212 150.97C183.125 149.865 185.571 150.521 186.676 152.434L188.231 155.128C189.336 157.041 188.68 159.487 186.767 160.592L184.767 161.746C182.854 162.851 180.408 162.195 179.303 160.282L177.748 157.589Z" fill="url(#paint1_linear_169_330)"/>
<defs>
<linearGradient id="paint0_linear_169_330" x1="150" y1="0" x2="150" y2="450" gradientUnits="userSpaceOnUse">
<stop stop-color="#525252"/>
<stop offset="1" stop-color="#222222"/>
</linearGradient>
<linearGradient id="paint1_linear_169_330" x1="84.2947" y1="180.175" x2="214.657" y2="106.379" gradientUnits="userSpaceOnUse">
<stop stop-color="#999999"/>
<stop offset="1" stop-color="white"/>
</linearGradient>
</defs>
</svg>
