<svg width="24" height="24" viewBox="0 0 25 25" fill="none" xmlns="http://www.w3.org/2000/svg">
<path fill-rule="evenodd" clip-rule="evenodd" d="M17.6036 9.8018C17.6036 14.1106 14.1106 17.6036 9.8018 17.6036C5.49299 17.6036 2 14.1106 2 9.8018C2 5.49299 5.49299 2 9.8018 2C14.1106 2 17.6036 5.49299 17.6036 9.8018ZM15.6833 17.6437C14.045 18.8743 12.0086 19.6036 9.8018 19.6036C4.38842 19.6036 0 15.2152 0 9.8018C0 4.38842 4.38842 0 9.8018 0C15.2152 0 19.6036 4.38842 19.6036 9.8018C19.6036 12.2876 18.6783 14.5573 17.1532 16.2852L24.028 23.16L22.6138 24.5742L15.6833 17.6437Z" fill="white"/>
</svg>
