<svg fill="none" height="24" viewBox="0 0 24 24" width="24" xmlns="http://www.w3.org/2000/svg"><path d="m14.9125 7.48656-1.9474-3.89446c-.3948-.78947-1.5354-.78947-1.9302 0l-1.94739 3.89446c-.15677.3135-.45979.53079-.81032.58106l-4.35456.62451c-.88273.12659-1.2352 1.19724-.59645 1.81177l3.15099 3.0314c.25365.244.36939.5956.30951.9402l-.74385 4.2804c-.15078.8677.77199 1.5294 1.56153 1.1197l3.89484-2.0209c.3135-.1627.6881-.1627 1.0016 0l3.8948 2.0209c.7896.4097 1.7124-.252 1.5616-1.1197l-.7439-4.2804c-.0599-.3446.0559-.6962.3095-.9402l3.151-3.0314c.6388-.61453.2863-1.68518-.5964-1.81177l-4.3546-.62451c-.3505-.05027-.6535-.26756-.8103-.58106z" stroke="#fff" stroke-linecap="round" stroke-linejoin="round" stroke-width="2"/></svg>